<svg width="331" height="301" viewBox="0 0 331 301" fill="none" xmlns="http://www.w3.org/2000/svg">
<path d="M102.5 129L78 86L102.5 44H152.5L178 86L152.5 129H102.5Z" stroke="current" stroke-width="4"/>
<path d="M177.5 87L153 44L177.5 2H227.5L253 44L227.5 87H177.5Z" stroke="current" stroke-width="4"/>
<path d="M27.5 258L3 215L27.5 173H77.5L103 215L77.5 258H27.5Z" stroke="current" stroke-width="4"/>
<path d="M102.5 299L78 256L102.5 214H152.5L178 256L152.5 299H102.5Z" stroke="current" stroke-width="4"/>
<path d="M177.5 258L153 215L177.5 173H227.5L253 215L227.5 258H177.5Z" stroke="current" stroke-width="4"/>
<path d="M252.5 215L228 172L252.5 130H302.5L328 172L302.5 215H252.5Z" stroke="current" stroke-width="4"/>
<path d="M252.5 129L228 86L252.5 44H302.5L328 86L302.5 129H252.5Z" stroke="current" stroke-width="4"/>
<path d="M177.5 172L153 129L177.5 87H227.5L253 129L227.5 172H177.5Z" stroke="current" stroke-width="4"/>
<path d="M27.5 172L3 129L27.5 87H77.5L103 129L77.5 172H27.5Z" stroke="current" stroke-width="4"/>
<path d="M102.5 214L78 171L102.5 129H152.5L178 171L152.5 214H102.5Z" stroke="current" stroke-width="4"/>
</svg>
